PathFileType	4	(X/Y/Z)	C:/Users/beibeiliu/ov580/test_trc/capture2\sequence.26_training_dense_left.trc
DataRate	CameraRate	NumFrames	NumMarkers	Units	OrigDataRate	OrigDataStartFrame	OrigNumFrames
120	120	10	19	mm	120	1	383
Frame#	Time	ThumbCMC			ThumbMCP			ThumbIP			ThumbTip			IndexMCP			IndexPIP			IndexTip			MiddleMCP			MiddlePIP			MiddleTip			RingMCP			RingPIP			RingTip			PinkyMCP			PinkyPIP			PinkyTip			BackHand1			BackHand2			BackHand3	
		X0	Y0	Z0	X1	Y1	Z1	X2	Y2	Z2	X3	Y3	Z3	X4	Y4	Z4	X5	Y5	Z5	X6	Y6	Z6	X7	Y7	Z7	X8	Y8	Z8	X9	Y9	Z9	X10	Y10	Z10	X11	Y11	Z11	X12	Y12	Z12	X13	Y13	Z13	X14	Y14	Z14	X15	Y15	Z15	X16	Y16	Z16	X17	Y17	Z17	X18	Y18	Z18	
0	0	-137.426	50.6429	12.379	-121.298	34.8449	-1.02811	-98.3758	29.0791	-15.4426	-80.2245	22.8005	-30.831	-141.154	59.5412	-63.069	-132.075	55.2829	-86.1293	-126.153	53.2909	-115.825	-162.803	63.4455	-73.8005	-162.211	60.7556	-100.65	-162.538	55.6142	-129.389	-183.937	59.9841	-74.3203	-186.785	57.2355	-95.0853	-189.065	52.5742	-121.381	-210.984	54.0575	-63.2301	-215.61	48.994	-80.2208	-219.822	50.077	-105.379	-189.119	74.4293	-26.1129	-194.053	79.2503	8.06274	-160.945	75.2893	-6.51077	
1	0.00833333	-138.838	49.2263	9.6881	-120.285	34.5566	-2.21398	-103.24	27.3657	-18.19	-81.5927	20.4706	-31.1789	-141.437	59.2121	-64.8882	-133.058	55.5674	-90.9348	-128.535	52.6591	-117.475	-162.049	63.0895	-76.5509	-161.87	60.5203	-98.4363	-163.421	55.1679	-129.822	-188.629	61.0173	-72.9491	-186.235	56.5862	-95.6977	-188.802	52.7403	-126.668	-208.437	54.0233	-59.6309	-216.85	49.152	-85.518	-222.76	51.6769	-104.106	-191.773	73.8785	-22.9535	-192.279	79.9676	5.05388	-159.797	73.6273	-8.35956	
2	0.0166667	-139.602	48.7562	11.6253	-123.104	34.4095	-0.443981	-99.1342	26.3547	-19.7003	-85.8494	20.8016	-29.256	-135.884	57.9174	-67.1254	-133.871	55.0804	-88.6867	-125.699	52.9278	-112.511	-164.76	63.6246	-73.4801	-162.363	59.8061	-99.5723	-160.796	55.0702	-127.729	-183.69	60.3651	-70.6126	-186.551	55.5999	-100.04	-189.978	52.2974	-125.504	-209.813	55.3536	-61.1184	-216.758	49.1327	-83.2208	-221.238	49.3148	-104.587	-192.116	74.8066	-23.6307	-191.757	78.3726	5.06189	-161.686	73.7982	-5.7088	
3	0.025	-135.812	48.8734	7.82153	-122.943	34.3537	-3.49144	-101.792	27.0938	-18.6093	-86.0172	21.2154	-27.6571	-138.881	58.3382	-66.9943	-129.117	55.0564	-90.7838	-131.268	53.5705	-112.386	-162.772	63.3908	-71.7976	-162.701	59.9479	-101.578	-163.697	55.2903	-128.523	-183.191	60.6702	-73.1637	-187.327	56.2757	-98.6526	-187.556	53.0307	-120.362	-205.408	54.6053	-59.7069	-212.016	50.5266	-83.1027	-220.964	52.4166	-104.229	-190.317	73.6366	-26.0778	-195.466	79.5343	3.51351	-159.922	74.0895	-8.35007	
4	0.0333333	-140.939	49.2744	10.9007	-121.101	34.445	-4.45024	-99.8456	27.6047	-16.0136	-82.9075	21.4921	-27.9304	-136.75	58.9357	-62.8024	-131.501	56.0889	-85.8495	-126.275	54.4685	-110.522	-159.923	64.6179	-76.8332	-159.786	59.2886	-103.192	-161.03	56.1095	-126.57	-188.09	60.5055	-72.2822	-185.915	56.7319	-99.7633	-189.381	52.1814	-124.784	-210.901	54.8123	-61.7976	-210.812	50.1371	-81.6214	-221.003	52.3879	-104.595	-191.09	75.3768	-25.3533	-189.826	79.2699	3.15079	-161.002	73.3771	-8.09632	
5	0.0416667	-139.685	49.5999	7.04322	-122.386	35.5921	-4.01523	-100.872	28.4359	-20.6469	-82.1708	22.2603	-28.804	-136.579	59.086	-61.452	-133.726	55.937	-90.4432	-127.294	54.3529	-110.72	-164.512	63.9771	-76.129	-160.933	60.2986	-100.438	-164.239	55.6013	-127.82	-188.845	60.6261	-72.2832	-189.266	56.5676	-99.5421	-191.091	52.6472	-121.722	-208.714	55.6147	-61.2771	-211.367	50.4132	-79.6482	-221.702	50.014	-103.851	-188.722	74.9092	-21.369	-193.075	78.8643	4.98814	-158.388	73.5095	-6.23433	
6	0.05	-137.331	50.2954	7.80467	-119.79	35.5806	-3.80702	-103.756	27.4715	-16.7872	-85.0432	22.5923	-28.9023	-139.651	59.8524	-67.4158	-131.465	55.7684	-85.9145	-129.871	54.4954	-111.822	-165.389	64.4037	-76.8056	-160.924	60.6494	-98.2542	-161.781	56.4155	-129.693	-184.354	60.5317	-69.915	-188.215	56.6709	-96.5905	-187.052	53.3949	-125.375	-211.246	55.3507	-61.4836	-214.729	49.9794	-85.0877	-221.848	50.7412	-105.592	-188.184	72.9915	-20.8929	-194.918	79.5674	6.30411	-161.744	76.027	-5.67154	
7	0.0583333	-138.573	51.2159	12.4071	-121.793	35.5409	-1.03902	-98.751	28.8099	-18.451	-82.2214	23.0887	-26.5557	-138.765	60.6032	-65.8761	-129.989	55.4471	-90.5247	-130.778	54.9222	-112.288	-163.499	64.4052	-76.2826	-161.796	60.6751	-99.2261	-158.062	55.2584	-131.848	-183.948	61.0636	-71.2472	-190.362	56.8961	-97.2609	-189.609	53.2775	-121.877	-210.929	56.2494	-64.0649	-213.365	50.4444	-81.6011	-221.466	50.0522	-108.471	-193.537	74.2337	-21.6697	-194.676	79.3955	4.40955	-158.694	76.5725	-6.25335	
8	0.0666667	-138.597	49.9014	9.533	-121.951	34.9264	-4.20553	-103.411	28.4622	-18.7332	-82.1497	23.0069	-31.3231	-139.142	60.5935	-63.5133	-131.101	56.3686	-91.4647	-124.928	53.531	-115.635	-163.125	64.8126	-72.812	-163.984	60.8598	-102.961	-160.853	55.8223	-129.391	-185.86	61.5365	-73.0079	-189.737	57.4226	-96.7498	-186.288	52.8047	-124.297	-210.976	55.9426	-59.4223	-213.175	50.538	-80.3894	-222.103	50.9075	-105.948	-190.694	73.267	-22.9613	-195.698	78.9504	7.37554	-160.968	74.4413	-5.30976	
9	0.075	-140.909	50.0059	10.806	-118.431	34.6909	-1.87939	-99.6908	28.7316	-14.8476	-86.0934	21.4719	-29.2189	-137.669	59.5104	-64.3908	-134.258	56.7055	-87.178	-128.896	55.0264	-113.486	-161.231	64.3924	-74.9865	-159.754	60.7379	-100.237	-160.093	55.4584	-127.676	-182.398	61.1244	-73.9054	-190.549	57.7414	-95.0983	-188.248	52.2588	-122.444	-206.174	55.0273	-58.9513	-214.389	49.6035	-82.9299	-219.973	49.7574	-105.005	-193.172	73.9839	-22.7692	-194.501	79.2212	3.26748	-159.828	74.5297	-4.48248	
